<?xml version="1.0" encoding="UTF-8"?>
<svg version="1.1" xmlns="http://www.w3.org/2000/svg" width="918" height="415">
<path d="M0 0 C302.94 0 605.88 0 918 0 C918 136.95 918 273.9 918 415 C615.06 415 312.12 415 0 415 C0 278.05 0 141.1 0 0 Z " fill="#F7F7F4" transform="translate(0,0)"/>
<path d="M0 0 C0.69439178 0.02039841 1.38878357 0.04079681 2.10421753 0.06181335 C4.28363869 0.1385773 6.45632564 0.2586617 8.6328125 0.39453125 C9.31202759 0.43531799 9.99124268 0.47610474 10.69104004 0.51812744 C14.71604551 0.77574634 18.72876594 1.11846014 22.74267578 1.51147461 C24.76373995 1.70760647 26.78584259 1.88666369 28.80859375 2.06445312 C55.97787147 4.56855201 55.97787147 4.56855201 64.3046875 13.109375 C71.529756 21.8545693 73.66413089 33.71648867 76.3828125 44.45703125 C76.69863281 45.67841797 77.01445313 46.89980469 77.33984375 48.15820312 C79.6328125 57.10673701 79.6328125 57.10673701 79.6328125 59.39453125 C80.28147183 59.38937752 80.93013117 59.38422379 81.59844685 59.37891388 C124.49888883 59.03885102 167.39949187 58.73639315 210.3005228 58.4807806 C218.02551542 58.43472791 225.75049897 58.38785181 233.47546387 58.33734131 C247.77603244 58.24420103 262.07651241 58.16133848 276.37734127 58.11810875 C282.15805326 58.10055566 287.93854868 58.07657907 293.71914673 58.03564453 C299.07696078 57.99803505 304.43449663 57.97916874 309.79243851 57.97558022 C311.72710626 57.97109451 313.66177247 57.95984267 315.59635544 57.94118309 C318.20806613 57.91705793 320.81863413 57.91761011 323.43041992 57.92456055 C324.18190717 57.91174797 324.93339441 57.89893539 325.707654 57.88573456 C330.81391924 57.93650126 333.68527511 59.20371657 337.6328125 62.39453125 C340.39572664 65.91096743 340.13031564 70.127362 339.6328125 74.39453125 C338.53133423 78.63853872 337.17064963 82.78181935 335.75942993 86.93035889 C334.81944604 89.6948215 333.90648233 92.46798605 332.99143982 95.24078369 C332.52873256 96.64174405 332.06467363 98.0422587 331.59925842 99.44232178 C329.63287129 105.36012046 327.75607227 111.3021587 325.9453125 117.26953125 C325.52717285 118.64540405 325.52717285 118.64540405 325.10058594 120.04907227 C323.06857423 126.80283751 321.1874811 133.59370381 319.3203125 140.39453125 C315.5668974 154.03966878 311.20983978 167.47909537 306.77905273 180.91650391 C306.01945761 183.22133715 305.26628049 185.5282962 304.51977539 187.83740234 C304.17293701 188.90168457 303.82609863 189.9659668 303.46875 191.0625 C303.16630371 191.99731201 302.86385742 192.93212402 302.55224609 193.89526367 C300.38512813 199.78607264 297.80181234 203.11988706 292.0703125 205.76953125 C286.80078175 207.87003744 282.40076783 208.52331024 276.69793701 208.55274963 C276.00031541 208.55768761 275.30269381 208.56262559 274.58393216 208.5677132 C272.24703787 208.58306761 269.91017102 208.59144323 267.57324219 208.59985352 C265.89779418 208.60943366 264.22234858 208.61944382 262.54690552 208.62985229 C257.99771611 208.65689267 253.44851634 208.67790695 248.89929104 208.69785428 C244.14534554 208.71971916 239.39143196 208.7471054 234.63751221 208.77391052 C225.63492399 208.8238306 216.63231806 208.86877199 207.62969518 208.91193289 C197.38068324 208.9613111 187.13170334 209.01622707 176.88272238 209.07161248 C155.79944892 209.18542202 134.71614489 209.29226332 113.6328125 209.39453125 C112.10419002 212.52721355 110.61551672 215.6773888 109.1328125 218.83203125 C108.70355469 219.71052734 108.27429688 220.58902344 107.83203125 221.49414062 C105.20990018 227.13380348 103.52263353 232.13370402 104.6328125 238.39453125 C106.74673127 241.89343129 107.75017309 243.10031811 111.6328125 244.39453125 C113.88924679 244.49228557 116.14851272 244.5279181 118.40705872 244.53256226 C119.0995925 244.53538354 119.79212628 244.53820482 120.50564593 244.54111159 C122.83165609 244.54946013 125.15761866 244.55079605 127.48364258 244.55224609 C129.14920689 244.55691413 130.81476993 244.56205768 132.48033142 244.56764221 C136.07019239 244.57892595 139.66004505 244.5873588 143.24991798 244.59376144 C148.92687197 244.60443687 154.60376626 244.62468047 160.28068542 244.6468811 C176.4248074 244.70882084 192.56892596 244.76282157 208.71313477 244.79589844 C217.62704433 244.81424187 226.54085401 244.84317397 235.45469016 244.88390315 C240.17209257 244.9049771 244.88936909 244.92043098 249.60682106 244.92271042 C254.04492842 244.9248574 258.48277364 244.94073182 262.92080116 244.96710014 C264.54856419 244.97429259 266.17635899 244.97639437 267.80413437 244.97299767 C270.02893766 244.96909713 272.25290613 244.98357525 274.47761536 245.00253296 C275.7218266 245.00584311 276.96603785 245.00915325 278.24795246 245.01256371 C283.39025228 245.59285111 286.59249736 247.21733254 290.0078125 251.08203125 C291.983649 255.10969796 292.48419395 257.99718996 291.6328125 262.39453125 C289.44301667 267.03689841 287.28304374 268.89287963 282.55323482 270.79577565 C279.47251865 271.75629149 276.57384567 271.7725572 273.35977173 271.77548218 C272.66185339 271.78016215 271.96393506 271.78484212 271.24486768 271.78966391 C268.92427781 271.80155605 266.60428485 271.79217975 264.28369141 271.78271484 C262.61255043 271.7867832 260.94141215 271.79212657 259.27027893 271.79864502 C254.74330664 271.8122951 250.21654 271.80702895 245.68956423 271.79750776 C240.94386535 271.78989669 236.19818372 271.79696103 231.45248413 271.80166626 C223.48163707 271.80712066 215.51087345 271.79994159 207.54003906 271.78564453 C198.33836882 271.76932983 189.13689814 271.77459922 179.93523276 271.79112375 C172.02332184 271.80476099 164.11147082 271.806647 156.19955194 271.79880774 C151.47931105 271.79414208 146.75916378 271.79347561 142.03892899 271.80341721 C137.5983165 271.8121168 133.15795981 271.80601053 128.7173748 271.78873444 C127.09247066 271.78478505 125.46754481 271.78587697 123.84264946 271.79252243 C115.59308964 271.82313687 108.32403262 271.67258106 100.6328125 268.39453125 C99.34503906 267.84732422 99.34503906 267.84732422 98.03125 267.2890625 C89.32617897 262.63403417 83.9646577 256.09266827 80.53515625 246.8203125 C77.06549124 233.64760163 80.0628797 223.29842472 85.60595703 211.12011719 C88.91147025 203.46863314 88.72272287 198.38245202 86.6328125 190.39453125 C86.25116943 188.79943726 86.25116943 188.79943726 85.86181641 187.17211914 C84.99435276 183.62993301 84.06938915 180.10655353 83.1328125 176.58203125 C82.77751689 175.22738141 82.42288276 173.87255794 82.06884766 172.51757812 C81.31358268 169.62763453 80.55628987 166.73823338 79.79785156 163.84912109 C77.83853126 156.37181947 75.9251843 148.88267421 74.0078125 141.39453125 C73.59588028 139.78726845 73.1839334 138.1800094 72.77197266 136.57275391 C69.00506657 121.87062529 65.25424381 107.1643889 61.5078125 92.45703125 C61.20716888 91.27702545 60.90652527 90.09701965 60.59677124 88.8812561 C57.70804882 77.53956094 54.82233129 66.19729697 51.99609375 54.83984375 C51.70786743 53.6820063 51.70786743 53.6820063 51.41381836 52.5007782 C50.55609535 49.05173441 49.70180378 45.601891 48.85302734 42.15063477 C48.56766113 40.99748779 48.28229492 39.84434082 47.98828125 38.65625 C47.74746826 37.67615967 47.50665527 36.69606934 47.25854492 35.6862793 C46.71172025 33.38915232 46.71172025 33.38915232 45.6328125 31.39453125 C42.67415483 30.74495451 42.67415483 30.74495451 39.06640625 30.36328125 C38.39653183 30.2811438 37.72665741 30.19900635 37.03648376 30.11437988 C28.92777473 29.14457142 20.7920835 28.42468525 12.65698242 27.71728516 C-6.30150774 26.05605627 -6.30150774 26.05605627 -11.2421875 22.08203125 C-13.88968946 18.73371994 -15.49400503 16.6363379 -15.24609375 12.25390625 C-14.43487428 7.20260149 -13.23711052 4.77396354 -9.12017822 1.45535278 C-6.12939926 -0.35451574 -3.42751753 -0.12460142 0 0 Z " fill="#E64B27" transform="translate(46.3671875,28.60546875)"/>
<path d="M0 0 C6.93231828 4.76865994 11.92472787 10.76061975 14.59765625 18.796875 C16.3706638 28.50538233 15.89107564 37.72994553 10.90625 46.37109375 C4.97585841 54.54968707 -2.06915874 59.28319287 -12 61 C-20.74723477 61.81963337 -27.97734751 60.5599151 -35.2265625 55.421875 C-42.81031011 49.1162871 -47.82996902 41.94526334 -49 32 C-49.58573469 23.2139797 -47.70301247 14.90364668 -42 8 C-30.49016307 -4.30279021 -15.25678066 -8.01206677 0 0 Z " fill="#E64926" transform="translate(174,311)"/>
<path d="M0 0 C6.29152536 6.4378399 9.95326237 14.71836585 10.25 23.6875 C10.12168985 33.05414078 7.05512673 40.56956381 0.9453125 47.81640625 C-6.59855048 54.75189319 -15.34935671 57.14899972 -25.40625 57.02734375 C-33.26039949 56.27782142 -40.77867045 52.33133023 -46.3125 46.75 C-53.28140502 37.24131627 -55.36737383 28.47228545 -54.3125 16.75 C-53.43608525 13.3987095 -52.13057572 10.68732859 -50.3125 7.75 C-49.9 7.05261719 -49.4875 6.35523438 -49.0625 5.63671875 C-44.51948415 -1.21652391 -37.84513237 -5.52043559 -29.9375 -7.6875 C-18.63870825 -9.60052294 -9.11541692 -6.68000019 0 0 Z " fill="#E64926" transform="translate(322.3125,315.25)"/>
<path d="M0 0 C4.95 0 9.9 0 15 0 C16.08454749 3.92858652 17.16898783 7.8572024 18.25317383 11.78588867 C18.62062713 13.11728536 18.98813836 14.44866607 19.35571289 15.7800293 C21.58363331 23.84978198 23.80368879 31.92157762 26 40 C27.56652817 35.45658303 28.89112681 30.87189528 30.12890625 26.23046875 C30.52790694 24.75062735 30.92699806 23.27081033 31.32617188 21.79101562 C31.94846467 19.47600739 32.56966558 17.16071631 33.18920898 14.8449707 C33.79118515 12.59767187 34.39727489 10.35151468 35.00390625 8.10546875 C35.18933487 7.40761765 35.37476349 6.70976654 35.56581116 5.99076843 C36.8866787 1.1133213 36.8866787 1.1133213 38 0 C42.62 0 47.24 0 52 0 C52 26.4 52 52.8 52 80 C47.71 80 43.42 80 39 80 C38.505 59.21 38.505 59.21 38 38 C35.4084364 48.15613879 35.4084364 48.15613879 32.82446289 58.31420898 C32.5021167 59.57048096 32.17977051 60.82675293 31.84765625 62.12109375 C31.59622864 63.11743835 31.59622864 63.11743835 31.33972168 64.13391113 C30.1140718 68.8859282 30.1140718 68.8859282 29 70 C27.00041636 70.04080783 24.99954746 70.04254356 23 70 C20.3602004 62.58795007 18.53243334 55.10959487 16.8125 47.4375 C15.884375 43.333125 14.95625 39.22875 14 35 C13.67 49.85 13.34 64.7 13 80 C8.71 80 4.42 80 0 80 C0 53.6 0 27.2 0 0 Z " fill="#19272B" transform="translate(565,176)"/>
<path d="M0 0 C4.95 0 9.9 0 15 0 C16.40985993 5.01597256 17.81557263 10.03308227 19.2175293 15.05126953 C19.69459302 16.75666315 20.17276948 18.46174591 20.65209961 20.16650391 C21.34264343 22.62320497 22.02911917 25.08101252 22.71484375 27.5390625 C23.03520851 28.67379501 23.03520851 28.67379501 23.36204529 29.83145142 C24.48426818 33.87043736 25.39907043 37.84237245 26 42 C26.2266333 41.14881592 26.4532666 40.29763184 26.68676758 39.4206543 C27.54197486 36.20932152 28.39747937 32.99806821 29.25317383 29.78686523 C29.62080272 28.40701329 29.9883191 27.02713136 30.35571289 25.6472168 C31.23724206 22.33637124 32.12013919 19.02590498 33.00634766 15.71630859 C33.64029327 13.34532085 34.27056053 10.97334444 34.89599609 8.60009766 C35.16105957 7.60413574 35.42612305 6.60817383 35.69921875 5.58203125 C36.04279419 4.28036011 36.04279419 4.28036011 36.39331055 2.95239258 C37 1 37 1 38 0 C42.62 0 47.24 0 52 0 C52 26.4 52 52.8 52 80 C47.71 80 43.42 80 39 80 C38.67 65.81 38.34 51.62 38 37 C35.40974484 47.11142471 35.40974484 47.11142471 32.82446289 57.22412109 C32.5021167 58.47789551 32.17977051 59.73166992 31.84765625 61.0234375 C31.68003784 61.68255127 31.51241943 62.34166504 31.33972168 63.02075195 C30.1140718 67.7718564 30.1140718 67.7718564 29 70 C27.02 70 25.04 70 23 70 C19.27586095 58.78597235 16.7531813 47.56336147 14 36 C13.67 50.52 13.34 65.04 13 80 C8.71 80 4.42 80 0 80 C0 53.6 0 27.2 0 0 Z " fill="#18262A" transform="translate(627,176)"/>
<path d="M0 0 C4.95008277 2.14285247 8.12364671 5.55135163 10.56640625 10.33203125 C11.50870076 13.41931054 11.70293429 16.22774754 11.72753906 19.44848633 C11.73714661 20.46666946 11.74675415 21.4848526 11.75665283 22.53388977 C11.76090271 23.62872177 11.76515259 24.72355377 11.76953125 25.8515625 C11.77523132 26.98349533 11.7809314 28.11542816 11.7868042 29.28166199 C11.79624757 31.67645332 11.80278555 34.07125761 11.80664062 36.46606445 C11.81634162 40.12018632 11.84737023 43.77374458 11.87890625 47.42773438 C11.88543708 49.75650708 11.89068724 52.08528381 11.89453125 54.4140625 C11.90687805 55.50282181 11.91922485 56.59158112 11.9319458 57.71333313 C11.91206061 64.52244132 11.48196223 69.85171866 6.953125 75.2578125 C1.26802371 79.89737792 -3.73066106 81.84381058 -11.12890625 81.64453125 C-16.49454198 80.91698742 -20.74442975 78.42766419 -24.30859375 74.39453125 C-27.39825431 69.94178515 -28.6785673 66.44163812 -28.72412109 61.02612305 C-28.7368808 59.99122238 -28.7496405 58.95632172 -28.76278687 57.89006042 C-28.76501251 56.78165298 -28.76723816 55.67324554 -28.76953125 54.53125 C-28.77618805 53.38090775 -28.78284485 52.23056549 -28.78970337 51.04536438 C-28.79981906 48.61367387 -28.80452072 46.18195567 -28.80419922 43.75024414 C-28.80856574 40.04331314 -28.84488075 36.33757933 -28.8828125 32.63085938 C-28.88868228 30.26432697 -28.89265059 27.89778893 -28.89453125 25.53125 C-28.90890228 24.42891525 -28.92327332 23.32658051 -28.93807983 22.19084167 C-28.89317035 14.5686138 -27.82367179 9.06320544 -22.53125 3.23828125 C-15.4966747 -1.62246176 -8.23797018 -2.2611443 0 0 Z " fill="#162529" transform="translate(543.43359375,175.66796875)"/>
<path d="M0 0 C26 0 26 0 34 4 C40.04275861 10.29989728 40.22724352 14.89488657 40.3125 23.1875 C40.34150391 24.10853516 40.37050781 25.02957031 40.40039062 25.97851562 C40.47068303 33.59713117 38.87651848 38.80386836 33.75 44.5 C33.1725 44.995 32.595 45.49 32 46 C33.98970928 54.26203093 36.76147201 62.20378478 39.66235352 70.18066406 C39.96326904 71.01823242 40.26418457 71.85580078 40.57421875 72.71875 C40.84838623 73.47091797 41.12255371 74.22308594 41.4050293 74.99804688 C42 77 42 77 42 80 C37.38 80 32.76 80 28 80 C26.682721 75.79310898 25.37101529 71.5846167 24.0625 67.375 C23.50272461 65.59029297 23.50272461 65.59029297 22.93164062 63.76953125 C22.39506836 62.03896484 22.39506836 62.03896484 21.84765625 60.2734375 C21.51773682 59.21560059 21.18781738 58.15776367 20.84790039 57.06787109 C20.01507576 54.05454708 19.45571704 51.09077421 19 48 C17.02 48 15.04 48 13 48 C13 58.56 13 69.12 13 80 C8.71 80 4.42 80 0 80 C0 53.6 0 27.2 0 0 Z " fill="#162529" transform="translate(733,176)"/>
<path d="M0 0 C4.97130704 2.83104046 7.55986423 6.81563143 9.71484375 11.9765625 C10.0078125 15.625 10.0078125 15.625 9.90234375 19.3515625 C9.86173828 21.21941406 9.86173828 21.21941406 9.8203125 23.125 C9.78550781 24.06601563 9.75070312 25.00703125 9.71484375 25.9765625 C5.42484375 25.9765625 1.13484375 25.9765625 -3.28515625 25.9765625 C-3.74088542 22.91666667 -4.19661458 19.85677083 -4.65234375 16.796875 C-5.04772138 13.85723536 -5.04772138 13.85723536 -7.28515625 11.9765625 C-10.24284802 11.47645726 -10.24284802 11.47645726 -13.28515625 11.9765625 C-16.00453508 14.79911998 -16.66352505 16.81215079 -16.68920898 20.68164062 C-16.70823524 22.0732843 -16.70823524 22.0732843 -16.72764587 23.49304199 C-16.72471024 24.48791626 -16.7217746 25.48279053 -16.71875 26.5078125 C-16.72661278 28.04991394 -16.72661278 28.04991394 -16.7346344 29.62316895 C-16.74105327 31.79515683 -16.73971937 33.96717949 -16.73120117 36.13916016 C-16.72268715 39.46449545 -16.75146224 42.78811549 -16.78320312 46.11328125 C-16.78481511 48.22395782 -16.78423766 50.33463743 -16.78125 52.4453125 C-16.79248398 53.44018677 -16.80371796 54.43506104 -16.81529236 55.46008301 C-16.81650224 60.88796595 -16.81650224 60.88796595 -14.44946289 65.63476562 C-12.2669079 67.25099942 -12.2669079 67.25099942 -9.16015625 66.9765625 C-6.2447904 66.28585304 -6.2447904 66.28585304 -5.14453125 64.2734375 C-4.12444105 61.5470146 -3.86734843 59.12725305 -3.66015625 56.2265625 C-3.53640625 54.4940625 -3.41265625 52.7615625 -3.28515625 50.9765625 C1.00484375 50.9765625 5.29484375 50.9765625 9.71484375 50.9765625 C10.47212456 67.13188652 10.47212456 67.13188652 7.22265625 72.32421875 C3.18372557 76.75030082 -1.3943149 79.49351703 -7.32421875 80.484375 C-13.75954515 80.72875448 -19.05109729 79.85458197 -24.28515625 75.9765625 C-30.20833478 70.05338397 -31.62388279 63.81758466 -31.70199585 55.73974609 C-31.69592316 54.70414551 -31.68985046 53.66854492 -31.68359375 52.6015625 C-31.68646393 51.5182666 -31.68933411 50.4349707 -31.69229126 49.31884766 C-31.69432617 47.03612747 -31.68883655 44.75338962 -31.67626953 42.47070312 C-31.66020845 38.98788249 -31.6761385 35.50622228 -31.6953125 32.0234375 C-31.69332997 29.79947662 -31.68948609 27.57551646 -31.68359375 25.3515625 C-31.68966644 24.31596191 -31.69573914 23.28036133 -31.70199585 22.21337891 C-31.61572033 13.291443 -29.70098629 7.54159789 -23.28515625 0.9765625 C-16.56254017 -3.82530613 -7.36023127 -3.2210419 0 0 Z " fill="#17262A" transform="translate(496.28515625,177.0234375)"/>
<path d="M0 0 C4.33360631 3.2009592 7.07408511 7.12995346 8.71875 12.26953125 C8.9738148 16.62093681 8.80690924 20.90564865 8.71875 25.26953125 C4.42875 25.26953125 0.13875 25.26953125 -4.28125 25.26953125 C-5.76625 18.33953125 -5.76625 18.33953125 -7.28125 11.26953125 C-13.68610291 10.62238102 -13.68610291 10.62238102 -16.15625 12.51953125 C-18.1243278 15.58098561 -18.40647279 18.7049942 -18.44238281 22.28442383 C-18.45679413 23.451325 -18.45679413 23.451325 -18.47149658 24.64179993 C-18.4778714 25.8903199 -18.4778714 25.8903199 -18.484375 27.1640625 C-18.49007507 28.02964279 -18.49577515 28.89522308 -18.50164795 29.78703308 C-18.51108201 31.61688012 -18.51762559 33.44674403 -18.52148438 35.27661133 C-18.53117911 38.06166571 -18.56221282 40.84597838 -18.59375 43.63085938 C-18.60028183 45.41275606 -18.60553159 47.19465799 -18.609375 48.9765625 C-18.6217218 49.80283646 -18.6340686 50.62911041 -18.64678955 51.48042297 C-18.62647344 56.81070872 -17.84745086 60.56214215 -15.28125 65.26953125 C-12.90947118 66.67755816 -12.90947118 66.67755816 -10.28125 66.26953125 C-6.4224642 63.26503574 -5.65318619 60.78770871 -5.03125 56.01953125 C-4.78375 54.12203125 -4.53625 52.22453125 -4.28125 50.26953125 C0.00875 50.26953125 4.29875 50.26953125 8.71875 50.26953125 C9.0478669 58.93627633 8.81224856 66.46696058 3.46875 73.64453125 C-1.30766465 78.20383615 -5.27714522 79.43083519 -11.71875 79.70703125 C-17.78701916 79.51557694 -22.2960388 77.9805904 -26.8125 73.87890625 C-32.72062404 67.35249016 -32.58930709 60.30067071 -32.58203125 51.9921875 C-32.58631638 50.90747665 -32.5906015 49.82276581 -32.59501648 48.70518494 C-32.60074665 46.41650082 -32.60126974 44.12779849 -32.59692383 41.83911133 C-32.593764 38.34750153 -32.61723993 34.85673954 -32.64257812 31.36523438 C-32.64485133 29.13671981 -32.64555451 26.90820299 -32.64453125 24.6796875 C-32.653741 23.64094986 -32.66295074 22.60221222 -32.67243958 21.53199768 C-32.6160661 12.65219628 -30.75876815 6.7470494 -24.28125 0.26953125 C-16.77101249 -4.23661126 -7.63407335 -4.4271368 0 0 Z " fill="#17262A" transform="translate(814.28125,177.73046875)"/>
<path d="M0 0 C11.22 0 22.44 0 34 0 C34 3.96 34 7.92 34 12 C27.07 12 20.14 12 13 12 C13 18.93 13 25.86 13 33 C18.94 33 24.88 33 31 33 C31 36.96 31 40.92 31 45 C25.06 45 19.12 45 13 45 C13 52.59 13 60.18 13 68 C20.26 68 27.52 68 35 68 C35 71.96 35 75.92 35 80 C23.45 80 11.9 80 0 80 C0 53.6 0 27.2 0 0 Z " fill="#162428" transform="translate(397,176)"/>
<path d="M0 0 C11.22 0 22.44 0 34 0 C34 3.96 34 7.92 34 12 C27.07 12 20.14 12 13 12 C13 18.93 13 25.86 13 33 C18.61 33 24.22 33 30 33 C30 36.96 30 40.92 30 45 C24.39 45 18.78 45 13 45 C13 52.59 13 60.18 13 68 C20.26 68 27.52 68 35 68 C35 71.96 35 75.92 35 80 C23.45 80 11.9 80 0 80 C0 53.6 0 27.2 0 0 Z " fill="#172528" transform="translate(832,176)"/>
<path d="M0 0 C10.89 0 21.78 0 33 0 C33 3.96 33 7.92 33 12 C26.4 12 19.8 12 13 12 C13 18.93 13 25.86 13 33 C18.61 33 24.22 33 30 33 C30 36.96 30 40.92 30 45 C24.39 45 18.78 45 13 45 C13 52.59 13 60.18 13 68 C20.26 68 27.52 68 35 68 C35 71.96 35 75.92 35 80 C23.45 80 11.9 80 0 80 C0 53.6 0 27.2 0 0 Z " fill="#172529" transform="translate(690,176)"/>
<path d="M0 0 C5.13085538 2.94854449 9.61802735 7.11576947 11.35620117 12.9309082 C13.43514113 22.84254394 13.80847963 36.72751083 8.2421875 45.4140625 C4.52383469 49.87608587 0.57418349 52.58405318 -5.21875 53.41796875 C-10.48631493 53.7522739 -14.06060054 52.78277968 -18.390625 49.7578125 C-22.57470972 45.94746955 -25.87597429 40.63614518 -26.37646484 34.92358398 C-27.09318734 12.2165123 -27.09318734 12.2165123 -21.18359375 5.125 C-15.49319085 -0.5654029 -7.71483287 -3.0914536 0 0 Z " fill="#111D21" transform="translate(470.18359375,282.875)"/>
<path d="M0 0 C2.64 0 5.28 0 8 0 C20 25.31412104 20 25.31412104 20 30 C20.66 30 21.32 30 22 30 C22.39832031 28.74316406 22.79664063 27.48632812 23.20703125 26.19140625 C25.05879955 20.63610136 27.34708318 15.30142181 29.6875 9.9375 C30.10322266 8.97650391 30.51894531 8.01550781 30.94726562 7.02539062 C31.96151487 4.68212514 32.97914002 2.34039113 34 0 C36.97 0 39.94 0 43 0 C43 17.16 43 34.32 43 52 C40.36 52 37.72 52 35 52 C34.67 41.44 34.34 30.88 34 20 C30.7 27.92 27.4 35.84 24 44 C22.35 44 20.7 44 19 44 C15.7 36.74 12.4 29.48 9 22 C8.67 31.9 8.34 41.8 8 52 C5.36 52 2.72 52 0 52 C0 34.84 0 17.68 0 0 Z " fill="#18272B" transform="translate(496,283)"/>
<path d="M0 0 C22.7109375 0 22.7109375 0 27.64453125 4.5 C32.13951838 10.27282628 32.62282588 14.87086806 32 22 C30.15020393 26.9944494 27.61476462 30.71315249 22.76171875 33.1015625 C19.58564894 34.13479596 17.01911953 34.19822241 13.6875 34.125 C11.810625 34.08375 9.93375 34.0425 8 34 C8 39.94 8 45.88 8 52 C5.36 52 2.72 52 0 52 C0 34.84 0 17.68 0 0 Z " fill="#18262A" transform="translate(554,283)"/>
<path d="M0 0 C2.64 0 5.28 0 8 0 C8.33209473 0.6391333 8.66418945 1.2782666 9.00634766 1.93676758 C10.5447634 4.89593668 12.08487421 7.85422056 13.625 10.8125 C14.14707031 11.81732422 14.66914062 12.82214844 15.20703125 13.85742188 C15.72910156 14.85966797 16.25117187 15.86191406 16.7890625 16.89453125 C17.26037598 17.80050049 17.73168945 18.70646973 18.21728516 19.63989258 C20.76898631 24.44940545 23.39288902 29.22029654 26 34 C26.33 22.78 26.66 11.56 27 0 C29.64 0 32.28 0 35 0 C35 17.16 35 34.32 35 52 C32.36 52 29.72 52 27 52 C24.93324796 48.37740898 22.87240016 44.75149089 20.8125 41.125 C20.23435547 40.11179687 19.65621094 39.09859375 19.06054688 38.0546875 C18.49013672 37.04921875 17.91972656 36.04375 17.33203125 35.0078125 C16.81358643 34.09660645 16.2951416 33.18540039 15.76098633 32.24658203 C13.39734531 27.88893636 11.21701938 23.43403876 9 19 C8.67 29.89 8.34 40.78 8 52 C5.36 52 2.72 52 0 52 C0 34.84 0 17.68 0 0 Z " fill="#152225" transform="translate(642,283)"/>
<path d="M0 0 C2.64 0 5.28 0 8 0 C9.63775981 4.88824311 11.27340157 9.77718837 12.90722656 14.66674805 C13.46135636 16.32416117 14.01602816 17.9813932 14.57128906 19.63842773 C24 47.77989621 24 47.77989621 24 52 C21.36 52 18.72 52 16 52 C15.49440092 50.56445975 14.9957251 49.1264798 14.5 47.6875 C14.2215625 46.88699219 13.943125 46.08648437 13.65625 45.26171875 C13 43 13 43 13 40 C7.39 40 1.78 40 -4 40 C-4.99 43.96 -5.98 47.92 -7 52 C-9.97 52 -12.94 52 -16 52 C-14.2052063 46.04042825 -12.40867894 40.08138282 -10.6105957 34.12280273 C-10.00010148 32.09885535 -9.39006783 30.07476899 -8.78051758 28.05053711 C-7.9004854 25.12836975 -7.01875676 22.2067187 -6.13671875 19.28515625 C-5.86784348 18.39103531 -5.5989682 17.49691437 -5.32194519 16.57569885 C-3.64165026 11.01734974 -1.86781017 5.49819296 0 0 Z " fill="#152225" transform="translate(607,283)"/>
<path d="M0 0 C4.2314305 2.43950396 6.57770563 4.97180502 8.4375 9.5 C9.8423248 17.70796511 10.68736906 27.10679305 6.19921875 34.4453125 C3.5163147 37.92347475 1.41182508 39.72965052 -2.9375 40.5625 C-6.98720347 39.81867691 -9.36139361 38.03556487 -12 35 C-16.48063593 27.98033705 -15.90298188 19.25986948 -14.53125 11.26953125 C-12.57225675 4.30810879 -8.01925441 -1.80024079 0 0 Z " fill="#F4F4F2" transform="translate(466,289)"/>
<path d="M0 0 C3.89544365 2.78358625 5.74401777 5.54854147 7.625 9.9375 C7.875 12.875 7.875 12.875 7.625 14.9375 C5.315 14.9375 3.005 14.9375 0.625 14.9375 C0.2125 14.009375 -0.2 13.08125 -0.625 12.125 C-2.35330877 8.97700903 -3.22348424 7.55827953 -6.375 5.9375 C-10.36430719 5.52194717 -12.99070977 5.79186 -16.375 7.9375 C-21.60774798 15.46361284 -21.28923906 25.19737455 -20.375 33.9375 C-19.29399263 37.7982406 -17.98841551 40.92747566 -14.453125 43.140625 C-11.16038289 44.40325543 -8.74057232 43.77889308 -5.375 42.9375 C-2.45468259 40.64860257 -0.83005431 38.33262672 0.625 34.9375 C2.935 34.9375 5.245 34.9375 7.625 34.9375 C7.49947513 40.96269362 5.58748912 43.93450025 1.4453125 48.26953125 C-2.69371682 52.06216112 -6.74758349 52.34133857 -12.171875 52.1796875 C-18.12496576 51.52526972 -21.39216811 48.19147948 -25.078125 43.8515625 C-28.91163581 38.19367004 -28.70936094 32.71388785 -28.6875 26.125 C-28.70361328 25.16529297 -28.71972656 24.20558594 -28.73632812 23.21679688 C-28.74229431 14.47634056 -26.98345661 7.86307915 -20.8984375 1.34765625 C-15.35116945 -3.78712264 -6.35584336 -3.61154464 0 0 Z " fill="#142225" transform="translate(424.375,284.0625)"/>
<path d="M0 0 C3.125 0.25 3.125 0.25 4.9375 1.5625 C6.99237026 4.48257879 7.25507147 7.0933671 7.28613281 10.55029297 C7.29574036 11.414841 7.3053479 12.27938904 7.31524658 13.1701355 C7.31949646 14.10141266 7.32374634 15.03268982 7.328125 15.9921875 C7.33382507 16.95271027 7.33952515 17.91323303 7.34539795 18.90286255 C7.35484458 20.93539326 7.36138059 22.96793927 7.36523438 25.00048828 C7.37494082 28.10606657 7.40596786 31.21098326 7.4375 34.31640625 C7.44403017 36.29166274 7.44928059 38.26692396 7.453125 40.2421875 C7.4654718 41.1694162 7.4778186 42.0966449 7.49053955 43.05197144 C7.47200841 48.42929941 7.12559423 52.24940577 3.125 56.25 C-2.23174677 56.71580407 -2.23174677 56.71580407 -4.6875 54.9375 C-6.74237026 52.01742121 -7.00507147 49.4066329 -7.03613281 45.94970703 C-7.04574036 45.085159 -7.0553479 44.22061096 -7.06524658 43.3298645 C-7.06949646 42.39858734 -7.07374634 41.46731018 -7.078125 40.5078125 C-7.08382507 39.54728973 -7.08952515 38.58676697 -7.09539795 37.59713745 C-7.10484458 35.56460674 -7.11138059 33.53206073 -7.11523438 31.49951172 C-7.12494082 28.39393343 -7.15596786 25.28901674 -7.1875 22.18359375 C-7.19403017 20.20833726 -7.19928059 18.23307604 -7.203125 16.2578125 C-7.2154718 15.3305838 -7.2278186 14.4033551 -7.24053955 13.44802856 C-7.22088809 7.74561101 -6.90646063 0.60056179 0 0 Z " fill="#F8F8F6" transform="translate(534.875,187.75)"/>
<path d="M0 0 C2.64 0 5.28 0 8 0 C10.66666667 5.33333333 13.33333333 10.66666667 16 16 C16.37012207 16.67836914 16.74024414 17.35673828 17.12158203 18.05566406 C18 20 18 20 18 23 C18.66 23 19.32 23 20 23 C20.0825 22.35546875 20.165 21.7109375 20.25 21.046875 C21.28612579 16.83761398 23.12217054 13.14354151 25 9.25 C25.55300781 8.08017578 25.55300781 8.08017578 26.1171875 6.88671875 C28.85164037 1.14835963 28.85164037 1.14835963 30 0 C32.67058851 -0.14115161 35.32432238 -0.04247107 38 0 C37.40653279 4.02683886 36.11240081 6.91767597 34.09375 10.4375 C26.27482426 24.62228642 21.94554709 35.71648136 23 52 C20.36 52 17.72 52 15 52 C15.09023438 50.80890625 15.18046875 49.6178125 15.2734375 48.390625 C15.8311305 31.76637941 9.23663706 19.63584371 1.26928711 5.57763672 C0 3 0 3 0 0 Z " fill="#1E2E31" transform="translate(689,283)"/>
<path d="M0 0 C2.97 0 5.94 0 9 0 C9 17.16 9 34.32 9 52 C6.36 52 3.72 52 1 52 C0.67 40.78 0.34 29.56 0 18 C-1.32 20.31 -2.64 22.62 -4 25 C-5.5390625 23.7578125 -5.5390625 23.7578125 -7 22 C-6.9609375 20.0546875 -6.9609375 20.0546875 -6.375 17.875 C-6.16617188 17.08480469 -5.95734375 16.29460937 -5.7421875 15.48046875 C-4.13364332 10.10454477 -2.51537903 5.03075805 0 0 Z " fill="#1B2C30" transform="translate(530,283)"/>
<path d="M0 0 C2 3 2 3 3 5 C3.33 4.01 3.66 3.02 4 2 C5.875 2.25 5.875 2.25 8 3 C9.125 4.875 9.125 4.875 10 7 C10.99 8.485 10.99 8.485 12 10 C12.6966504 11.94170514 13.3382417 13.90345095 13.9453125 15.875 C14.29980469 17.02484375 14.65429688 18.1746875 15.01953125 19.359375 C15.38433594 20.56078125 15.74914062 21.7621875 16.125 23 C16.49753906 24.20140625 16.87007812 25.4028125 17.25390625 26.640625 C20 35.61320971 20 35.61320971 20 39 C17.36 39 14.72 39 12 39 C11.49440092 37.56445975 10.9957251 36.1264798 10.5 34.6875 C10.2215625 33.88699219 9.943125 33.08648437 9.65625 32.26171875 C9 30 9 30 9 27 C3.39 27 -2.22 27 -8 27 C-8 26.01 -8 25.02 -8 24 C-6.51886719 23.94392578 -6.51886719 23.94392578 -5.0078125 23.88671875 C-3.72648438 23.82097656 -2.44515625 23.75523437 -1.125 23.6875 C0.15117188 23.62949219 1.42734375 23.57148438 2.7421875 23.51171875 C3.81726563 23.34285156 4.89234375 23.17398437 6 23 C6.66 22.01 7.32 21.02 8 20 C3.38 20 -1.24 20 -6 20 C-4.35873462 13.12231652 -2.64714293 6.55483011 0 0 Z " fill="#1A282B" transform="translate(611,296)"/>
<path d="M0 0 C0.33 0 0.66 0 1 0 C1.02578125 1.0621875 1.0515625 2.124375 1.078125 3.21875 C1.45385189 15.61420095 1.45385189 15.61420095 7.875 26 C10.84105363 27.39578994 12.75563252 27.46348107 16 27 C19.67066947 24.86588984 21.88681366 22.40154858 23.44140625 18.4140625 C24.75280337 12.74662601 24.78361927 6.79751122 25 1 C25.33 1 25.66 1 26 1 C26.33 3.64 26.66 6.28 27 9 C29.52259061 7.02579865 29.9929808 6.03254358 30.6875 2.8125 C30.790625 1.884375 30.89375 0.95625 31 0 C31.33 0 31.66 0 32 0 C32.98742147 21.37218909 32.98742147 21.37218909 27 29 C22.78380811 33.21619189 18.59828839 35.06237278 12.6875 35.4375 C7.44612507 35.28924147 3.86323021 33.49370385 0 30 C-2.87138074 26.54319211 -4.8425874 23.511161 -5.3125 19 C-5.209375 18.34 -5.10625 17.68 -5 17 C-4.67 17.99 -4.34 18.98 -4 20 C-3.01 20 -2.02 20 -1 20 C-0.67 13.4 -0.34 6.8 0 0 Z " fill="#121D21" transform="translate(450,301)"/>
<path d="M0 0 C3.75790413 0.05913726 5.04383002 0.24456593 8.3125 2.3125 C10.84986997 6.32318156 11.67517702 9.63969519 11.25 14.375 C9.57174851 17.92514738 8.26410187 19.74461235 4.9375 21.8125 C1.34951584 22.56347343 -1.19476699 22.26380825 -4.75 21.375 C-7.45567626 19.55160948 -9.28728718 18.30042564 -10.75 15.375 C-11.17068924 12.31598826 -11.24028455 9.42741674 -10.75 6.375 C-8.3125 3.375 -8.3125 3.375 -5.75 1.375 C-4.10843264 -0.26656736 -2.25784199 0.08684008 0 0 Z " fill="#F7F5F2" transform="translate(299.75,328.625)"/>
<path d="M0 0 C2.87029869 1.79393668 4.49131638 2.98263276 6 6 C6.55512815 10.63213493 6.6364242 13.98172127 4.125 18 C0.63362508 21.28599993 -2.01736104 21.41461134 -6.671875 21.33203125 C-10.88612634 20.73100547 -12.29181427 19.31752752 -15 16 C-16.11001836 12.90333339 -16.45880985 10.26328507 -16 7 C-12.35380903 0.149149 -7.20709889 -0.93356203 0 0 Z " fill="#F7F6F3" transform="translate(162,329)"/>
<path d="M0 0 C1.98 0 3.96 0 6 0 C7.56464388 2.55078916 9.1010896 5.11253963 10.625 7.6875 C11.07101562 8.40873047 11.51703125 9.12996094 11.9765625 9.87304688 C15.16261542 15.3241843 15.16261542 15.3241843 14.2734375 19.01953125 C13.85320313 19.67308594 13.43296875 20.32664062 13 21 C11 19 9 17 7 15 C6.67 26.22 6.34 37.44 6 49 C4.02 49 2.04 49 0 49 C0 32.83 0 16.66 0 0 Z " fill="#192A2E" transform="translate(643,285)"/>
<path d="M0 0 C9 0 9 0 12 1.875 C15.14902894 5.22084325 15.18315426 7.29484183 15.25 11.8125 C15.28867187 13.36904297 15.28867187 13.36904297 15.328125 14.95703125 C14.95701851 18.39860214 14.04491005 20.23540073 12 23 C10 24 10 24 0 24 C0 16.08 0 8.16 0 0 Z " fill="#F2F3F1" transform="translate(746,188)"/>
<path d="M0 0 C11.42307692 0 11.42307692 0 15 3 C16.87703256 6.75406513 16.64672327 10.92116117 16 15 C13.625 18.125 13.625 18.125 10 20 C6.7 20 3.4 20 0 20 C0 13.4 0 6.8 0 0 Z " fill="#F4F4F2" transform="translate(562,290)"/>
<path d="M0 0 C6.93 0 13.86 0 21 0 C21 3.63 21 7.26 21 11 C14.07 11 7.14 11 0 11 C0 7.37 0 3.74 0 0 Z " fill="#162326" transform="translate(436,214)"/>
<path d="M0 0 C3.93134245 2.15838409 6.95122341 4.73345366 10 8 C10.66 8.66 11.32 9.32 12 10 C13.62423781 16.64460921 12.65891911 23.25875059 12 30 C11.67 30 11.34 30 11 30 C10.505 27.525 10.505 27.525 10 25 C8.50256881 26.49743119 8.66797307 27.98824239 8.4375 30.0625 C8.293125 31.361875 8.14875 32.66125 8 34 C7.67 34 7.34 34 7 34 C6.67 29.05 6.34 24.1 6 19 C5.67 19 5.34 19 5 19 C4.79375 17.783125 4.5875 16.56625 4.375 15.3125 C3.2108191 10.48457333 0.95352873 8.83622714 -3 6 C-3 5.67 -3 5.34 -3 5 C-5.31 4.34 -7.62 3.68 -10 3 C-7.28376229 -0.83468854 -4.42055341 -0.52447244 0 0 Z " fill="#1B2A2E" transform="translate(469,284)"/>
<path d="M0 0 C2.97 0 5.94 0 9 0 C9 17.16 9 34.32 9 52 C6.36 52 3.72 52 1 52 C0.97514636 47.97982745 0.95706762 43.95968512 0.94506836 39.93945312 C0.94006214 38.5738853 0.93325518 37.20832276 0.92456055 35.84277344 C0.91233169 33.87176882 0.90727134 31.9007239 0.90234375 29.9296875 C0.89710693 28.74616699 0.89187012 27.56264648 0.88647461 26.34326172 C0.99529823 23.13846468 1.39482517 20.14523388 2 17 C2.33 17 2.66 17 3 17 C3.02476851 21.19921466 3.04289246 25.39839029 3.05493164 29.59765625 C3.05995206 31.02539816 3.06676972 32.45313496 3.07543945 33.88085938 C3.08760553 35.93621079 3.09325128 37.99149407 3.09765625 40.046875 C3.10289307 41.28276367 3.10812988 42.51865234 3.11352539 43.79199219 C3.02071737 46.4145671 2.78356673 48.51644594 2 51 C3.65 51 5.3 51 7 51 C7 34.83 7 18.66 7 2 C4.36 2.33 1.72 2.66 -1 3 C-0.67 2.01 -0.34 1.02 0 0 Z " fill="#1A2326" transform="translate(530,283)"/>
<path d="M0 0 C2.64 0 5.28 0 8 0 C9.86708601 3.45150916 11.71642907 6.91221165 13.5625 10.375 C14.36204102 11.85226562 14.36204102 11.85226562 15.17773438 13.359375 C15.67724609 14.30039062 16.17675781 15.24140625 16.69140625 16.2109375 C17.15748291 17.08024902 17.62355957 17.94956055 18.10375977 18.84521484 C18.39951904 19.55629395 18.69527832 20.26737305 19 21 C18 23 18 23 15 25 C13.125 24.375 13.125 24.375 11 23 C9.75 19.875 9.75 19.875 9 17 C10.66666667 18.66666667 12.33333333 20.33333333 14 22 C14.76849965 19.74457325 15.15628879 18.46093824 14.37915039 16.16894531 C14.03875732 15.56147461 13.69836426 14.95400391 13.34765625 14.328125 C12.98349609 13.66425781 12.61933594 13.00039063 12.24414062 12.31640625 C11.65922852 11.29353516 11.65922852 11.29353516 11.0625 10.25 C10.48338867 9.20392578 10.48338867 9.20392578 9.89257812 8.13671875 C8.93926363 6.4183988 7.97104654 4.70836196 7 3 C5.35 3 3.7 3 2 3 C2.00580078 3.95777344 2.01160156 4.91554688 2.01757812 5.90234375 C2.05903612 15.94538445 1.8442535 25.9635086 1.5 36 C1.4515835 37.46874213 1.40340556 38.93749214 1.35546875 40.40625 C1.23971031 43.93759455 1.12078988 47.46882353 1 51 C2.98 51 4.96 51 7 51 C7 40.44 7 29.88 7 19 C7.33 19 7.66 19 8 19 C8 29.89 8 40.78 8 52 C5.36 52 2.72 52 0 52 C0 34.84 0 17.68 0 0 Z " fill="#080D0E" transform="translate(642,283)"/>
<path d="M0 0 C2.64 0 5.28 0 8 0 C9.5625 2.8125 9.5625 2.8125 11 6 C10.67 6.99 10.34 7.98 10 9 C9.608125 8.030625 9.21625 7.06125 8.8125 6.0625 C8.214375 5.051875 7.61625 4.04125 7 3 C5.35 2.67 3.7 2.34 2 2 C2 18.17 2 34.34 2 51 C3.65 51 5.3 51 7 51 C7 40.77 7 30.54 7 20 C7.33 20 7.66 20 8 20 C8 30.56 8 41.12 8 52 C5.36 52 2.72 52 0 52 C0 34.84 0 17.68 0 0 Z " fill="#030C10" transform="translate(496,283)"/>
<path d="M0 0 C6.12647608 1.56723807 9.1534633 4.45305283 12.8125 9.5 C14.11268174 12.23722471 14.25643998 14.00820023 14 17 C11.69 17 9.38 17 7 17 C6.79375 15.9275 6.5875 14.855 6.375 13.75 C4.70638919 9.19924325 3.32110254 8.07745315 -1 6 C-4.25177852 5.66405867 -4.25177852 5.66405867 -7 6 C-5.75 4 -5.75 4 -4 2 C-2.68 2 -1.36 2 0 2 C0 1.34 0 0.68 0 0 Z " fill="#162428" transform="translate(418,282)"/>
<path d="M0 0 C2.24269478 3.36404218 3.38655744 6.75716923 4.625 10.5625 C4.85445312 11.24763672 5.08390625 11.93277344 5.3203125 12.63867188 C7 17.73272414 7 17.73272414 7 20 C2.71 20 -1.58 20 -6 20 C-4.35873462 13.12231652 -2.64714293 6.55483011 0 0 Z " fill="#F4F4F3" transform="translate(611,296)"/>
<path d="M0 0 C1.8871875 0.0309375 1.8871875 0.0309375 3.8125 0.0625 C3.8125 0.7225 3.8125 1.3825 3.8125 2.0625 C2.1625 2.7225 0.5125 3.3825 -1.1875 4.0625 C-1.1875 4.3925 -1.1875 4.7225 -1.1875 5.0625 C0.111875 5.1553125 0.111875 5.1553125 1.4375 5.25 C5.77297956 6.29372656 7.57395723 8.05528171 10.8125 11.0625 C10.4825 11.7225 10.1525 12.3825 9.8125 13.0625 C8.94625 12.2375 8.08 11.4125 7.1875 10.5625 C4.76697217 8.5472964 3.93245333 8.07929347 0.6875 7.625 C-2.15993421 8.05830521 -3.77137961 8.54338239 -6.1875 10.0625 C-11.30908215 17.63918979 -10.96950708 27.27738526 -11.1875 36.0625 C-11.5175 36.0625 -11.8475 36.0625 -12.1875 36.0625 C-12.26906437 33.20774694 -12.32826372 30.35536435 -12.375 27.5 C-12.40013672 26.70013672 -12.42527344 25.90027344 -12.45117188 25.07617188 C-12.51885949 19.54834967 -11.5331169 16.04308813 -9.1875 11.0625 C-9.1875 9.7425 -9.1875 8.4225 -9.1875 7.0625 C-8.5275 7.0625 -7.8675 7.0625 -7.1875 7.0625 C-7.1875 6.0725 -7.1875 5.0825 -7.1875 4.0625 C-9.62679746 5.98826115 -11.98840595 7.86340595 -14.1875 10.0625 C-13.93183121 6.61097139 -12.92552926 5.81761431 -10.3125 3.375 C-6.68153174 0.68808349 -4.39554212 -0.07205807 0 0 Z " fill="#11191C" transform="translate(414.1875,281.9375)"/>
<path d="M0 0 C0.33 0 0.66 0 1 0 C1.95744681 20.72340426 1.95744681 20.72340426 -4 29 C-4.99 29 -5.98 29 -7 29 C-5.68 27.02 -4.36 25.04 -3 23 C-4.32 22.67 -5.64 22.34 -7 22 C-6.67 15.07 -6.34 8.14 -6 1 C-5.67 1 -5.34 1 -5 1 C-4.67 3.64 -4.34 6.28 -4 9 C-1.47740939 7.02579865 -1.0070192 6.03254358 -0.3125 2.8125 C-0.1578125 1.4203125 -0.1578125 1.4203125 0 0 Z " fill="#0F191C" transform="translate(481,301)"/>
<path d="M0 0 C2.64 0 5.28 0 8 0 C11.22265625 5.17578125 11.22265625 5.17578125 12 7 C11.67 7.99 11.34 8.98 11 10 C10.34 9.67 9.68 9.34 9 9 C9 8.34 9 7.68 9 7 C8.34 7 7.68 7 7 7 C5.70567815 9.83487215 5.70567815 9.83487215 6.72851562 11.9453125 C7.11716797 12.66460937 7.50582031 13.38390625 7.90625 14.125 C8.32003906 14.91390625 8.73382812 15.7028125 9.16015625 16.515625 C9.60230469 17.33546875 10.04445313 18.1553125 10.5 19 C11.37373262 20.62009896 12.23876266 22.24493068 13.09375 23.875 C13.48240234 24.59429687 13.87105469 25.31359375 14.27148438 26.0546875 C15 28 15 28 14 31 C11.9985033 27.07115019 10.00491084 23.13842207 8.01855469 19.2019043 C7.34168019 17.86324383 6.66265579 16.52566819 5.98144531 15.18920898 C5.0027889 13.26827479 4.03192442 11.34357504 3.0625 9.41796875 C2.47597656 8.26063232 1.88945313 7.1032959 1.28515625 5.91088867 C0 3 0 3 0 0 Z " fill="#121E21" transform="translate(689,283)"/>
<path d="M0 0 C3.37329915 1.39584792 5.04232662 2.92365611 7 6 C7.9807664 8.94229921 8.16488128 10.9908784 8.1875 14.0625 C8.20167969 14.94035156 8.21585938 15.81820313 8.23046875 16.72265625 C8 19 8 19 6 21 C5.67 19.35 5.34 17.7 5 16 C1.88667752 16.66868314 1.88667752 16.66868314 0.8125 19.0625 C0.544375 19.701875 0.27625 20.34125 0 21 C-0.66 20.67 -1.32 20.34 -2 20 C-1.67 19.67 -1.34 19.34 -1 19 C-0.45417784 13.33184682 -0.29791502 8.62760622 -4 4 C-3.401875 4.185625 -2.80375 4.37125 -2.1875 4.5625 C0.16408762 5.22093687 0.16408762 5.22093687 3 4 C2.01 2.68 1.02 1.36 0 0 Z " fill="#101C1F" transform="translate(578,286)"/>
<path d="M0 0 C0.33 0 0.66 0 1 0 C1 6.6 1 13.2 1 20 C2.20495909 19.01592689 2.20495909 19.01592689 2.11352539 17.14233398 C2.10828857 16.35157471 2.10305176 15.56081543 2.09765625 14.74609375 C2.09443359 13.89208984 2.09121094 13.03808594 2.08789062 12.15820312 C2.07951172 11.26037109 2.07113281 10.36253906 2.0625 9.4375 C2.05798828 8.53580078 2.05347656 7.63410156 2.04882812 6.70507812 C2.03700225 4.46998686 2.0205222 2.23502563 2 0 C3.65 0.33 5.3 0.66 7 1 C7 7.6 7 14.2 7 21 C4.69 21 2.38 21 0 21 C0 14.07 0 7.14 0 0 Z " fill="#0D1719" transform="translate(704,314)"/>
<path d="M0 0 C0.66 0.99 1.32 1.98 2 3 C3.32 2.34 4.64 1.68 6 1 C5.8453125 1.49242187 5.690625 1.98484375 5.53125 2.4921875 C4.636755 6.71473009 4.60009541 11.03041077 4.39453125 15.33203125 C4.10159485 20.7968103 4.10159485 20.7968103 3 23 C1.35 22.67 -0.3 22.34 -2 22 C-2 21.01 -2 20.02 -2 19 C-1.34 19 -0.68 19 0 19 C0 12.73 0 6.46 0 0 Z " fill="#1D2E32" transform="translate(446,298)"/>
<path d="M0 0 C0.33 0 0.66 0 1 0 C1.33 6.93 1.66 13.86 2 21 C0.02 21.99 0.02 21.99 -2 23 C-2.99 22.34 -3.98 21.68 -5 21 C-5.2487793 19.12060547 -5.2487793 19.12060547 -5.07421875 16.8671875 C-5.01943359 16.06152344 -4.96464844 15.25585938 -4.90820312 14.42578125 C-4.83537109 13.58402344 -4.76253906 12.74226563 -4.6875 11.875 C-4.5956543 10.60076172 -4.5956543 10.60076172 -4.50195312 9.30078125 C-4.34848609 7.19946335 -4.17602278 5.09954876 -4 3 C-3.67 3 -3.34 3 -3 3 C-2.67 4.65 -2.34 6.3 -2 8 C-0.03177114 6.03177114 -0.33751619 2.65191291 0 0 Z " fill="#1B2D31" transform="translate(401,300)"/>
<path d="M0 0 C2.64 0 5.28 0 8 0 C7.34 1.32 6.68 2.64 6 4 C5.01 3.67 4.02 3.34 3 3 C3 12.9 3 22.8 3 33 C2.01 33 1.02 33 0 33 C0 22.11 0 11.22 0 0 Z " fill="#3F4B4E" transform="translate(669,283)"/>
<path d="M0 0 C1.98 1.32 3.96 2.64 6 4 C5 6 4 8 3 10 C2.731875 10.7115625 2.46375 11.423125 2.1875 12.15625 C1 14 1 14 -1.1640625 14.609375 C-1.97617187 14.65578125 -2.78828125 14.7021875 -3.625 14.75 C-4.44226563 14.80671875 -5.25953125 14.8634375 -6.1015625 14.921875 C-6.72804688 14.94765625 -7.35453125 14.9734375 -8 15 C-8 13.68 -8 12.36 -8 11 C-6.576875 10.1028125 -6.576875 10.1028125 -5.125 9.1875 C-1.25704242 6.47992969 -0.87176799 4.53319354 0 0 Z " fill="#1B2B2F" transform="translate(473,319)"/>
<path d="M0 0 C0.33 0 0.66 0 1 0 C1.19393875 2.14526099 1.37998676 4.29123677 1.5625 6.4375 C1.66691406 7.63246094 1.77132812 8.82742187 1.87890625 10.05859375 C1.91886719 11.02925781 1.95882812 11.99992188 2 13 C1 14 1 14 -0.85766602 14.11352539 C-1.64842529 14.10828857 -2.43918457 14.10305176 -3.25390625 14.09765625 C-4.10791016 14.09443359 -4.96191406 14.09121094 -5.84179688 14.08789062 C-6.73962891 14.07951172 -7.63746094 14.07113281 -8.5625 14.0625 C-9.46419922 14.05798828 -10.36589844 14.05347656 -11.29492188 14.04882812 C-13.52997589 14.03700244 -15.76499602 14.01906638 -18 14 C-18 19.94 -18 25.88 -18 32 C-18.33 32 -18.66 32 -19 32 C-19 25.4 -19 18.8 -19 12 C-12.73 12 -6.46 12 0 12 C0 8.04 0 4.08 0 0 Z " fill="#E4E5E4" transform="translate(723,176)"/>
<path d="M0 0 C0.33 0 0.66 0 1 0 C1 3.63 1 7.26 1 11 C0.67 11 0.34 11 0 11 C0 7.37 0 3.74 0 0 Z M-18 11 C-12.06 11 -6.12 11 0 11 C-0.33 11.99 -0.66 12.98 -1 14 C-5.95 14 -10.9 14 -16 14 C-16 18.29 -16 22.58 -16 27 C-16.33 27 -16.66 27 -17 27 C-16.98839844 26.01257813 -16.97679687 25.02515625 -16.96484375 24.0078125 C-16.95582031 22.72648438 -16.94679688 21.44515625 -16.9375 20.125 C-16.92589844 18.84882813 -16.91429687 17.57265625 -16.90234375 16.2578125 C-16.76823431 13.11335348 -16.76823431 13.11335348 -18 11 Z " fill="#EFF0EE" transform="translate(721,210)"/>
<path d="M0 0 C0.33 0 0.66 0 1 0 C1 15.18 1 30.36 1 46 C0.01 45.34 -0.98 44.68 -2 44 C-2.328125 41.43359375 -2.328125 41.43359375 -2.25 38.4375 C-2.23453125 37.44621094 -2.2190625 36.45492187 -2.203125 35.43359375 C-2 33 -2 33 -1 32 C-0.84028023 29.62661361 -0.7407567 27.27881728 -0.68359375 24.90234375 C-0.66281265 24.19348526 -0.64203156 23.48462677 -0.62062073 22.75428772 C-0.55505402 20.48212695 -0.4962077 18.20984736 -0.4375 15.9375 C-0.39432151 14.40037817 -0.35070745 12.8632685 -0.30664062 11.32617188 C-0.19936551 7.5509041 -0.09811863 3.7755164 0 0 Z " fill="#ECECEB" transform="translate(557,194)"/>
<path d="M0 0 C0.33 1.32 0.66 2.64 1 4 C1.99 4 2.98 4 4 4 C4.32613618 8.67461851 3.70582788 11.16674383 1 15 C0.855625 14.401875 0.71125 13.80375 0.5625 13.1875 C0.1127561 11.43849596 -0.42892341 9.71322977 -1 8 C-1.66 8 -2.32 8 -3 8 C-3.28875 8.94875 -3.5775 9.8975 -3.875 10.875 C-5 14 -5 14 -7 16 C-6.40165275 11.85701333 -4.99335715 8.81805623 -2.9375 5.1875 C-2.11572266 3.72376953 -2.11572266 3.72376953 -1.27734375 2.23046875 C-0.85582031 1.49441406 -0.43429687 0.75835937 0 0 Z " fill="#121D1F" transform="translate(717,288)"/>
<path d="M0 0 C3.3 0 6.6 0 10 0 C10.33 0.66 10.66 1.32 11 2 C8.03 2 5.06 2 2 2 C2.33 7.94 2.66 13.88 3 20 C2.01 20 1.02 20 0 20 C0 13.4 0 6.8 0 0 Z " fill="#E5E9E9" transform="translate(562,290)"/>
<path d="M0 0 C0 2.64 0 5.28 0 8 C-1.32 8.33 -2.64 8.66 -4 9 C-4 9.66 -4 10.32 -4 11 C-5.98 11.99 -5.98 11.99 -8 13 C-8.33 11.35 -8.66 9.7 -9 8 C-8.01 7.67 -7.02 7.34 -6 7 C-5.67 5.02 -5.34 3.04 -5 1 C-2 0 -2 0 0 0 Z " fill="#1C2B2F" transform="translate(608,300)"/>
<path d="M0 0 C4.29 0 8.58 0 13 0 C13 3.63 13 7.26 13 11 C12.67 11 12.34 11 12 11 C12 8.03 12 5.06 12 2 C8.7 2 5.4 2 2 2 C1.814375 4.35125 1.814375 4.35125 1.625 6.75 C1.34290718 10.32317572 0.79275866 12.88089144 -1 16 C-1.66 15.67 -2.32 15.34 -3 15 C-2.52433594 14.18789062 -2.52433594 14.18789062 -2.0390625 13.359375 C-0.81692026 10.5842851 -0.59056564 8.26791902 -0.375 5.25 C-0.25125 3.5175 -0.1275 1.785 0 0 Z " fill="#11181B" transform="translate(493,228)"/>
<path d="M0 0 C1.32 0.99 2.64 1.98 4 3 C3.67 4.98 3.34 6.96 3 9 C1.02253397 9.73080266 -0.98072489 10.39421747 -3 11 C-3.66 10.67 -4.32 10.34 -5 10 C-4.55090939 8.51800098 -4.09043436 7.03944764 -3.625 5.5625 C-3.36976563 4.73878906 -3.11453125 3.91507812 -2.8515625 3.06640625 C-2 1 -2 1 0 0 Z " fill="#1A292C" transform="translate(596,324)"/>
<path d="M0 0 C2.64 0 5.28 0 8 0 C9.5625 2.8125 9.5625 2.8125 11 6 C10.67 6.99 10.34 7.98 10 9 C9.608125 8.030625 9.21625 7.06125 8.8125 6.0625 C7.32405113 2.77823609 7.32405113 2.77823609 4.3125 2.125 C3.1678125 2.063125 3.1678125 2.063125 2 2 C2.02320313 2.69867188 2.04640625 3.39734375 2.0703125 4.1171875 C2.08835937 5.02726562 2.10640625 5.93734375 2.125 6.875 C2.14820313 7.77992188 2.17140625 8.68484375 2.1953125 9.6171875 C2 12 2 12 0 14 C0 9.38 0 4.76 0 0 Z " fill="#0E181D" transform="translate(496,283)"/>
<path d="M0 0 C-0.75 7.75 -0.75 7.75 -3 10 C-2.67 8.02 -2.34 6.04 -2 4 C-3.65 4.33 -5.3 4.66 -7 5 C-7.33 6.98 -7.66 8.96 -8 11 C-8.66 11 -9.32 11 -10 11 C-9.57781184 9.3501725 -9.13675575 7.70516335 -8.6875 6.0625 C-8.44386719 5.14597656 -8.20023438 4.22945313 -7.94921875 3.28515625 C-7.47935547 2.15400391 -7.47935547 2.15400391 -7 1 C-4 0 -4 0 0 0 Z " fill="#131D20" transform="translate(610,296)"/>
<path d="M0 0 C2.97 0.33 5.94 0.66 9 1 C9 1.33 9 1.66 9 2 C7.02 2 5.04 2 3 2 C3 7.28 3 12.56 3 18 C2.01 18 1.02 18 0 18 C0 12.06 0 6.12 0 0 Z " fill="#D8DBD9" transform="translate(562,317)"/>
<path d="M0 0 C0.66 0 1.32 0 2 0 C2.32297455 6.05278224 2.52333984 10.78023727 -1 16 C-4 18 -4 18 -6.1875 17.625 C-7.0846875 17.315625 -7.0846875 17.315625 -8 17 C-7.67 16.34 -7.34 15.68 -7 15 C-5.68 15 -4.36 15 -3 15 C-1.08697693 11.73386305 -0.64325339 9.00554752 -0.375 5.25 C-0.26285156 3.77273437 -0.26285156 3.77273437 -0.1484375 2.265625 C-0.09945312 1.51796875 -0.05046875 0.7703125 0 0 Z " fill="#DEE1E1" transform="translate(808,227)"/>
<path d="M0 0 C2.34917898 2.15341406 3.82443004 4.21667937 5.25 7.0625 C5.78367187 8.10083984 5.78367187 8.10083984 6.328125 9.16015625 C6.54984375 9.76730469 6.7715625 10.37445313 7 11 C6 13 6 13 3 15 C1.125 14.375 1.125 14.375 -1 13 C-2.25 9.875 -2.25 9.875 -3 7 C-1.33333333 8.66666667 0.33333333 10.33333333 2 12 C2.80469849 10.29887008 2.80469849 10.29887008 3 8 C2.06553465 5.96855359 1.06775224 3.96466413 0 2 C0 1.34 0 0.68 0 0 Z " fill="#0D1619" transform="translate(654,293)"/>
<path d="M0 0 C1.98 0 3.96 0 6 0 C6.66 2.64 7.32 5.28 8 8 C7.34 8 6.68 8 6 8 C6 7.01 6 6.02 6 5 C5.01 5 4.02 5 3 5 C2.67 7.31 2.34 9.62 2 12 C1.67 12 1.34 12 1 12 C0.67 8.04 0.34 4.08 0 0 Z " fill="#E9EAEA" transform="translate(746,224)"/>
<path d="M0 0 C0.33 0 0.66 0 1 0 C1 4.95 1 9.9 1 15 C0.34 15 -0.32 15 -1 15 C-1.33 16.32 -1.66 17.64 -2 19 C-2.66 19 -3.32 19 -4 19 C-2.02 9.595 -2.02 9.595 0 0 Z " fill="#E9EBEA" transform="translate(665,208)"/>
<path d="M0 0 C0.66 0.33 1.32 0.66 2 1 C1.67 1.33 1.34 1.66 1 2 C1.99 2.66 2.98 3.32 4 4 C4 4.66 4 5.32 4 6 C0.98968256 6.93423645 0.13349732 7.04449911 -3 6 C-3 5.34 -3 4.68 -3 4 C-5.97 3.67 -8.94 3.34 -12 3 C-12 2.67 -12 2.34 -12 2 C-10.95199219 1.90912109 -10.95199219 1.90912109 -9.8828125 1.81640625 C-8.97273437 1.73261719 -8.06265625 1.64882813 -7.125 1.5625 C-6.22007812 1.48128906 -5.31515625 1.40007812 -4.3828125 1.31640625 C-1.98889139 1.13010715 -1.98889139 1.13010715 0 0 Z " fill="#101B1F" transform="translate(574,308)"/>
<path d="M0 0 C2.98191427 1.04367 3.8747545 2.22328366 5.5 4.875 C1.80458414 5.82524979 -0.80458414 5.82524979 -4.5 4.875 C-4.83 3.885 -5.16 2.895 -5.5 1.875 C-2.5 -0.125 -2.5 -0.125 0 0 Z " fill="#1D2D32" transform="translate(576.5,286.125)"/>
<path d="M0 0 C4.29874317 6.44811476 3.06787886 14.6435012 2 22 C1.67 22 1.34 22 1 22 C0.20274098 14.63959083 -0.12886183 7.40239645 0 0 Z " fill="#F0F1F0" transform="translate(578,208)"/>
<path d="M0 0 C1.13643966 3.40931897 0.86747764 4.00335456 -0.4375 7.1875 C-0.72496094 7.90292969 -1.01242187 8.61835938 -1.30859375 9.35546875 C-1.53675781 9.89816406 -1.76492188 10.44085938 -2 11 C-2.33 10.34 -2.66 9.68 -3 9 C-3.99 9.33 -4.98 9.66 -6 10 C-5.125 5.25 -5.125 5.25 -4 3 C-3.01 2.67 -2.02 2.34 -1 2 C-0.67 1.34 -0.34 0.68 0 0 Z " fill="#E53E1D" transform="translate(363,172)"/>
<path d="M0 0 C0.99 0.33 1.98 0.66 3 1 C3 2.65 3 4.3 3 6 C0.69 6 -1.62 6 -4 6 C-4.33 4.68 -4.66 3.36 -5 2 C-3.35 2 -1.7 2 0 2 C0 1.34 0 0.68 0 0 Z " fill="#222D31" transform="translate(429,293)"/>
<path d="M0 0 C2.64 0 5.28 0 8 0 C11.22265625 5.17578125 11.22265625 5.17578125 12 7 C11.67 7.99 11.34 8.98 11 10 C8 4.25 8 4.25 8 2 C6.02 2 4.04 2 2 2 C1.67 2.66 1.34 3.32 1 4 C0.67 2.68 0.34 1.36 0 0 Z " fill="#151C1F" transform="translate(689,283)"/>
<path d="M0 0 C1.51150967 2.81166418 2.51430351 5.45680982 3.25 8.5625 C3.44078125 9.32691406 3.6315625 10.09132812 3.828125 10.87890625 C4 13 4 13 2 16 C0.39274365 12.78548731 0.94251815 9.56387464 1 6 C0.34 6 -0.32 6 -1 6 C-0.67 4.02 -0.34 2.04 0 0 Z " fill="#EBEDEC" transform="translate(754,233)"/>
<path d="M0 0 C0.33 0 0.66 0 1 0 C1.05410687 1.77049689 1.09284119 3.54146849 1.125 5.3125 C1.14820313 6.29863281 1.17140625 7.28476563 1.1953125 8.30078125 C1 11 1 11 -1 14 C-1.66 14 -2.32 14 -3 14 C-2.68872484 12.41642541 -2.37592711 10.83315007 -2.0625 9.25 C-1.80146484 7.92742187 -1.80146484 7.92742187 -1.53515625 6.578125 C-1.07631512 4.36764947 -0.56663926 2.18487932 0 0 Z " fill="#ECEEEE" transform="translate(603,210)"/>
<path d="M0 0 C1.28497537 3.85492611 0.4052209 5.40346836 -0.9375 9.1875 C-1.31777344 10.27417969 -1.69804687 11.36085938 -2.08984375 12.48046875 C-2.39019531 13.31191406 -2.69054687 14.14335938 -3 15 C-4.35015859 10.94952424 -3.62084998 8.2079832 -3 4 C-2.34 4 -1.68 4 -1 4 C-0.67 2.68 -0.34 1.36 0 0 Z " fill="#E43415" transform="translate(384,102)"/>
<path d="M0 0 C0.66 0.33 1.32 0.66 2 1 C2 1.66 2 2.32 2 3 C1.34 3 0.68 3 0 3 C0.33 3.99 0.66 4.98 1 6 C-1.64 6 -4.28 6 -7 6 C-5.75 4 -5.75 4 -4 2 C-2.68 2 -1.36 2 0 2 C0 1.34 0 0.68 0 0 Z " fill="#203134" transform="translate(418,282)"/>
<path d="M0 0 C0.33 0 0.66 0 1 0 C1.66 3.63 2.32 7.26 3 11 C2.01 11 1.02 11 0 11 C-1.125 3.375 -1.125 3.375 0 0 Z " fill="#F6EAE4" transform="translate(114,144)"/>
<path d="M0 0 C2.45823172 3.68734758 3.01242616 6.69699971 4 11 C2.02 9.35 0.04 7.7 -2 6 C-1.34 4.02 -0.68 2.04 0 0 Z " fill="#E5E9E8" transform="translate(611,296)"/>
<path d="M0 0 C0.99 0.33 1.98 0.66 3 1 C3.33 2.98 3.66 4.96 4 7 C3.34 7 2.68 7 2 7 C1.67 8.65 1.34 10.3 1 12 C0.67 12 0.34 12 0 12 C0 8.04 0 4.08 0 0 Z " fill="#E9EBE9" transform="translate(642,223)"/>
<path d="M0 0 C0.66 0 1.32 0 2 0 C2.625 2.8125 2.625 2.8125 3 6 C2.01 7.485 2.01 7.485 1 9 C-1.09230769 4.56923077 -1.09230769 4.56923077 -0.625 1.6875 C-0.41875 1.130625 -0.2125 0.57375 0 0 Z " fill="#EDEFEF" transform="translate(590,209)"/>
<path d="M0 0 C1.32 0.66 2.64 1.32 4 2 C3.67 2.99 3.34 3.98 3 5 C2.34 5 1.68 5 1 5 C-0.62514468 6.45833358 -0.62514468 6.45833358 -2 8 C-1.34 5.36 -0.68 2.72 0 0 Z " fill="#EFF0F0" transform="translate(609,302)"/>
<path d="M0 0 C2.64 0 5.28 0 8 0 C7.625 2.4375 7.625 2.4375 7 5 C6.01 5.495 6.01 5.495 5 6 C5.33 4.68 5.66 3.36 6 2 C4.02 2 2.04 2 0 2 C0 1.34 0 0.68 0 0 Z " fill="#181E21" transform="translate(719,283)"/>
<path d="M0 0 C0.99 0.33 1.98 0.66 3 1 C3.73046875 2.77734375 3.73046875 2.77734375 4.1875 4.9375 C4.34605469 5.64777344 4.50460937 6.35804688 4.66796875 7.08984375 C5 9 5 9 5 11 C4.34 11 3.68 11 3 11 C2.01 7.37 1.02 3.74 0 0 Z " fill="#EDEFEF" transform="translate(768,234)"/>
<path d="M0 0 C0.33 0 0.66 0 1 0 C1 3.3 1 6.6 1 10 C0.01 9.67 -0.98 9.34 -2 9 C-1.125 1.125 -1.125 1.125 0 0 Z " fill="#233135" transform="translate(467,232)"/>
<path d="M0 0 C0.66 0 1.32 0 2 0 C5.125 6.625 5.125 6.625 4 10 C3.34 9.67 2.68 9.34 2 9 C1.3671875 6.93359375 1.3671875 6.93359375 0.875 4.4375 C0.70742188 3.61121094 0.53984375 2.78492188 0.3671875 1.93359375 C0.24601563 1.29550781 0.12484375 0.65742188 0 0 Z " fill="#EFF1F0" transform="translate(642,177)"/>
<path d="M0 0 C0.33 0.66 0.66 1.32 1 2 C0.06421005 4.35981813 -0.93347808 6.69631264 -2 9 C-2.66 7.68 -3.32 6.36 -4 5 C-2 2 -2 2 0 0 Z " fill="#F7EEE9" transform="translate(366,173)"/>
<path d="M0 0 C2.5654594 2.5654594 2.54046087 4.47686668 3 8 C2.01 8.33 1.02 8.66 0 9 C-1.125 3.375 -1.125 3.375 0 0 Z " fill="#F5EFEB" transform="translate(111,135)"/>
<path d="M0 0 C-0.66 1.65 -1.32 3.3 -2 5 C-3.65 4.67 -5.3 4.34 -7 4 C-4.83989616 0.75984424 -3.8842653 0 0 0 Z " fill="#E5401E" transform="translate(314,345)"/>
<path d="M0 0 C3.67230705 3.07999946 4.56802365 5.2482602 5 10 C1.32769295 6.92000054 0.43197635 4.7517398 0 0 Z " fill="#0F171A" transform="translate(397,320)"/>
<path d="M0 0 C0.66 0 1.32 0 2 0 C2.99 2.97 3.98 5.94 5 9 C4.01 8.67 3.02 8.34 2 8 C1.26953125 6.15234375 1.26953125 6.15234375 0.8125 3.9375 C0.65394531 3.20402344 0.49539063 2.47054688 0.33203125 1.71484375 C0.22246094 1.14894531 0.11289062 0.58304687 0 0 Z " fill="#ECEEED" transform="translate(624,311)"/>
<path d="M0 0 C2.32472205 2.85306797 3.7508258 5.54074837 5 9 C4.01 8.67 3.02 8.34 2 8 C2 7.34 2 6.68 2 6 C1.34 6 0.68 6 0 6 C0 4.02 0 2.04 0 0 Z " fill="#EEF0EF" transform="translate(693,294)"/>
<path d="M0 0 C-0.11409593 1.45922693 -0.24165544 2.91740598 -0.375 4.375 C-0.44460938 5.18710938 -0.51421875 5.99921875 -0.5859375 6.8359375 C-1 9 -1 9 -3 11 C-3 7.7 -3 4.4 -3 1 C-1 0 -1 0 0 0 Z " fill="#0A1215" transform="translate(665,208)"/>
<path d="M0 0 C0.33 0 0.66 0 1 0 C2.25 7.625 2.25 7.625 0 11 C-1.28571429 3.57142857 -1.28571429 3.57142857 0 0 Z " fill="#253135" transform="translate(647,226)"/>
<path d="M0 0 C0.33 0 0.66 0 1 0 C1.66 2.97 2.32 5.94 3 9 C2.01 9.495 2.01 9.495 1 10 C0.63720544 8.71073008 0.28503302 7.41846728 -0.0625 6.125 C-0.35833984 5.04605469 -0.35833984 5.04605469 -0.66015625 3.9453125 C-1 2 -1 2 0 0 Z " fill="#EEF0EF" transform="translate(766,223)"/>
<path d="M0 0 C1.65 0.33 3.3 0.66 5 1 C5 2.65 5 4.3 5 6 C4.67 5.01 4.34 4.02 4 3 C2.35 3 0.7 3 -1 3 C-0.67 2.01 -0.34 1.02 0 0 Z " fill="#F0F1F0" transform="translate(802,188)"/>
</svg>
